<svg width="2520" height="362" viewBox="0 0 2520 362" fill="none" xmlns="http://www.w3.org/2000/svg">
<path d="M2114.25 0.831267C2099.83 2.49932 2082.08 7.38435 2070.88 12.746C2030.6 32.0478 2009.4 68.2685 2000.22 133.084C1998.08 148.335 1998.08 212.555 2000.22 229.594C2009.99 307.039 2038.11 345.285 2095.06 358.63C2104.36 360.774 2109.72 361.132 2132.12 361.132C2161.07 361.251 2174.65 359.225 2188.12 353.03C2193.6 350.528 2195.15 349.098 2197.05 344.928C2201.34 335.515 2199.32 308.945 2193.36 297.388C2188.47 287.737 2182.28 286.069 2165.96 290.239C2125.92 300.367 2099.71 287.022 2087.56 250.325C2080.88 230.308 2079.69 219.704 2079.69 180.743C2079.69 141.782 2080.88 131.297 2087.56 111.042C2096.14 85.4256 2109.6 72.2003 2130.69 68.7451C2139.98 67.3153 2147.96 67.911 2164.05 71.3663C2177.63 74.345 2180.73 73.7492 2184.78 67.6727C2190.98 58.3793 2194.67 44.0816 2194.67 28.95C2194.67 12.1502 2190.02 7.38435 2169.41 3.09506C2156.42 0.354679 2128.42 -0.717644 2114.25 0.831267Z" fill="#EEE8E3"/>
<path d="M2374 0.352927C2349.34 3.80819 2338.14 6.90601 2324.8 14.0548C2287.38 33.9524 2266.65 71.3645 2258.31 133.678C2255.81 152.861 2255.33 203.499 2257.6 223.039C2262.13 262.119 2272.73 294.289 2288.1 315.854C2295.13 325.624 2310.38 339.922 2319.91 345.522C2337.9 356.126 2355.18 360.534 2381.99 361.488C2422.86 362.917 2450.74 353.862 2474.68 331.343C2497.8 309.539 2510.79 279.157 2517.82 230.188C2519.96 215.652 2519.96 147.142 2517.82 132.487C2516.98 126.53 2515.19 116.164 2513.88 109.253C2501.85 48.8458 2469.32 12.3868 2418.57 2.61672C2408.8 0.829515 2381.15 -0.719396 2374 0.352927ZM2405.82 69.339C2418.21 73.6283 2427.98 86.4962 2432.98 104.726C2438.7 126.053 2439.42 134.751 2439.42 181.337C2439.42 217.915 2439.06 227.447 2437.39 237.336C2432.74 263.906 2427.26 277.131 2417.26 286.187C2409.39 293.216 2401.89 295.718 2388.3 295.599C2358.75 295.361 2344.93 277.37 2338.62 231.379C2336.47 215.413 2336.47 144.997 2338.62 130.104C2341.84 107.824 2348.39 88.8792 2356.13 79.5857C2366.02 68.0284 2388.66 63.2625 2405.82 69.339Z" fill="#EEE8E3"/>
<path d="M253.876 4.40881C251.731 4.88539 248.514 6.4343 246.727 7.74492C244.225 9.65127 243.629 10.9619 243.629 15.2512C243.748 18.1107 261.263 94.7222 282.828 185.512C313.092 313.476 322.504 351.127 324.411 353.152C329.057 358.275 333.347 358.871 368.733 358.871C400.426 358.871 402.333 358.752 407.694 356.25C410.673 354.939 413.771 352.795 414.367 351.484C414.962 350.293 433.311 273.8 455.115 181.461C499.914 -7.74419 496.935 9.29383 485.497 5.36198C480.493 3.57478 475.846 3.33648 455.711 3.57478C434.383 3.81307 431.524 4.05136 427.83 6.19601C425.566 7.50663 422.826 9.88957 421.515 11.5576C418.656 15.3703 379.337 217.086 373.976 255.213C369.567 286.549 369.448 287.383 368.257 286.072C367.661 285.477 365.874 274.277 364.206 261.051C362.418 247.945 351.338 186.823 339.542 125.224L318.096 13.3448L314.045 9.53213C311.781 7.50663 307.968 5.24283 305.347 4.52795C300.105 3.09819 259.952 2.97904 253.876 4.40881Z" fill="#EEE8E3"/>
<path d="M1004.42 5.48102C1000.84 6.79163 996.79 9.17458 995.36 10.7235C993.573 12.8681 990.713 22.519 985.471 43.8464C981.539 60.5269 963.429 134.994 945.437 209.342C927.446 283.689 912.672 345.884 912.672 347.552C912.672 349.22 913.506 351.722 914.459 353.152C917.795 357.918 923.514 358.871 950.203 358.871C972.484 358.871 975.701 358.633 979.752 356.607C982.373 355.297 984.875 353.152 985.59 351.722C986.186 350.412 989.76 335.28 993.573 318.361L1000.48 287.383H1039.09H1077.69L1084.36 318.361C1087.94 335.399 1091.63 350.531 1092.35 351.961C1093.18 353.39 1096.28 355.535 1099.38 356.726C1104.26 358.514 1108.67 358.871 1130.71 358.871C1153.11 358.871 1156.8 358.633 1160.26 356.726C1165.5 353.867 1166.69 350.173 1165.38 341.833C1163 327.655 1086.51 14.417 1084.72 11.7958C1083.65 10.2469 1080.31 7.74481 1077.33 6.43419C1072.09 4.05125 1069.59 3.81296 1041.35 3.57467C1013.95 3.21722 1010.37 3.45552 1004.42 5.48102ZM1040.16 80.4245C1040.16 85.1904 1048.14 126.654 1057.44 170.381C1063.63 199.81 1068.75 223.997 1068.75 224.354C1068.75 224.592 1055.29 224.831 1038.97 224.831H1009.18L1009.78 222.09C1013.47 206.125 1033.25 107.947 1034.8 97.9391C1037.3 80.9011 1037.54 79.4713 1038.97 79.4713C1039.68 79.4713 1040.16 79.9479 1040.16 80.4245Z" fill="#EEE8E3"/>
<path d="M1245.12 4.64701C1239.52 6.19592 1235 9.65119 1233.33 13.583C1232.37 16.0851 1232.02 60.1695 1232.26 182.772L1232.61 348.624L1235.95 352.08C1241.19 357.441 1247.98 358.871 1268.95 358.871C1285.28 358.871 1288.02 358.514 1293.02 356.25C1303.62 351.365 1302.91 359.109 1302.91 257C1302.91 169.666 1302.55 158.228 1299.1 144.049C1298.74 142.381 1298.98 141.428 1300.05 141.428C1301.12 141.428 1303.98 146.909 1307.08 154.772C1310.77 163.827 1329 197.546 1362.36 257C1389.77 305.851 1413.36 347.552 1414.79 349.697C1416.1 351.841 1419.67 354.701 1422.65 356.25C1427.42 358.633 1429.8 358.871 1445.29 358.871C1461.37 358.871 1463.04 358.633 1468.52 355.892C1479.6 350.293 1478.65 366.854 1478.53 181.342C1478.53 58.144 1478.17 17.0383 1477.1 13.9405C1476.03 10.9618 1474.12 8.9363 1470.31 6.79166C1465.07 3.93213 1464.23 3.81298 1442.91 3.81298C1422.18 3.81298 1420.51 3.93213 1415.74 6.55336C1406.81 11.3192 1407.16 7.02995 1407.16 101.156C1407.16 147.266 1407.76 189.682 1408.35 195.64C1410.86 219.469 1411.09 221.852 1409.9 220.661C1409.19 219.946 1405.61 212.201 1401.8 203.384C1393.58 183.844 1300.17 13.7022 1295.16 8.9363C1293.26 7.1491 1289.68 5.1236 1287.18 4.52786C1281.58 2.97895 1250.72 2.97895 1245.12 4.64701Z" fill="#EEE8E3"/>
<path d="M8.34334 5.94839C6.79442 6.78241 4.17319 9.2845 2.74343 11.4291L0.00304565 15.4801V180.38C0.00304565 360.053 -0.354395 350.879 6.67528 355.526C9.7731 357.551 14.8964 357.67 90.9122 358.028C180.272 358.385 175.268 358.743 179.558 350.76C181.345 347.543 181.702 343.73 181.702 324.905C181.702 305.841 181.464 302.267 179.558 298.931C175.626 291.782 174.196 291.544 123.916 291.544H78.6401V250.438V209.332H120.461C148.222 209.332 162.996 208.856 164.664 208.022C165.975 207.307 168.119 204.209 169.549 201.23C171.694 196.345 172.051 193.247 172.051 177.163C172.17 162.031 171.813 157.623 169.907 152.976C166.332 143.682 166.928 143.801 119.746 143.801H78.6401V106.866V69.9303H125.465C176.936 69.9303 175.387 70.1686 179.558 62.4241C181.106 59.4454 181.702 54.6795 182.06 41.2159C182.655 20.8418 181.226 12.5015 176.698 7.73559L173.481 4.39947H92.4611C29.9089 4.39947 10.6071 4.75692 8.34334 5.94839Z" fill="#EEE8E3"/>
<path d="M573.109 5.94839C571.56 6.78241 568.939 9.2845 567.509 11.4291L564.769 15.4801V180.38C564.769 360.053 564.411 350.879 571.441 355.526C574.539 357.551 579.662 357.67 655.678 358.028C745.038 358.385 740.034 358.743 744.323 350.76C746.11 347.543 746.468 343.73 746.468 324.905C746.468 305.841 746.23 302.267 744.323 298.931C740.391 291.782 738.962 291.544 688.682 291.544H643.406V250.438V209.332H685.226C712.988 209.332 727.762 208.856 729.43 208.022C730.74 207.307 732.885 204.209 734.315 201.23C736.459 196.345 736.817 193.247 736.817 177.163C736.936 162.031 736.579 157.623 734.672 152.976C731.098 143.682 731.694 143.801 684.511 143.801H643.406V106.866V69.9303H690.23C741.702 69.9303 740.153 70.1686 744.323 62.4241C745.872 59.4454 746.468 54.6795 746.825 41.2159C747.421 20.8418 745.991 12.5015 741.464 7.73559L738.247 4.39947H657.227C594.675 4.39947 575.373 4.75692 573.109 5.94839Z" fill="#EEE8E3"/>
<path d="M1577.94 6.66663C1570.55 11.1942 1570.91 1.06672 1570.91 182.17V347.427L1573.41 350.763C1578.89 358.389 1578.3 358.269 1639.42 358.269C1670.16 358.269 1699.35 357.674 1704.95 357.078C1734.14 353.504 1755.94 343.257 1772.98 325.266C1800.15 296.551 1813.37 249.488 1813.37 181.694C1813.37 84.5888 1786.45 28.3514 1731.16 10.5985C1713.77 4.87943 1706.14 4.40284 1641.92 4.40284C1585.09 4.40284 1581.39 4.52199 1577.94 6.66663ZM1699.47 73.2698C1712.22 78.9889 1719.25 87.5674 1724.49 103.414C1731.4 124.146 1734.74 166.562 1732.47 204.808C1729.85 249.488 1724.25 269.028 1710.19 281.896C1701.02 290.236 1695.89 291.547 1670.87 291.547H1650.14V180.621V69.6954L1671.95 70.172C1691.37 70.5294 1694.23 70.8869 1699.47 73.2698Z" fill="#EEE8E3"/>
</svg>
